PathFileType	4	(X/Y/Z)	/Users/itak/Documents/Research/Walk-IL/dataset/trc/00485_00167.trc
DataRate	CameraRate	NumFrames	NumMarkers	Units	OrigDataRate	OrigDataStartFrame	OrigNumFrames
100.000000	100.000000	4	53	mm	100.000000	141	566
Frame#	Time	RPSI			LPSI			L3			STRN			T10			C7			CLAV			RBAK			LBAK			LSHO			LUPA			LAEL			LAOL			LWTS			LWPS			LFRA			LIFD			LHPS			RSHO			RUPA			RAEL			RAOL			RWTS			RWPS			RFRA			RIFD			RHTS			RHPS			RBHD			LFHD			RFHD			LBHD			LHIP			RHIP			RASI			LASI			LKNE			LTHI			LANK			LTIP			LTOE			LMT1			LMT5			LHEE			RKNE			RTHI			RANK			RTIP			RTOE			RMT1			RMT5			RHEE			LHTS			
		X1	Y1	Z1	X2	Y2	Z2	X3	Y3	Z3	X4	Y4	Z4	X5	Y5	Z5	X6	Y6	Z6	X7	Y7	Z7	X8	Y8	Z8	X9	Y9	Z9	X10	Y10	Z10	X11	Y11	Z11	X12	Y12	Z12	X13	Y13	Z13	X14	Y14	Z14	X15	Y15	Z15	X16	Y16	Z16	X17	Y17	Z17	X18	Y18	Z18	X19	Y19	Z19	X20	Y20	Z20	X21	Y21	Z21	X22	Y22	Z22	X23	Y23	Z23	X24	Y24	Z24	X25	Y25	Z25	X26	Y26	Z26	X27	Y27	Z27	X28	Y28	Z28	X29	Y29	Z29	X30	Y30	Z30	X31	Y31	Z31	X32	Y32	Z32	X33	Y33	Z33	X34	Y34	Z34	X35	Y35	Z35	X36	Y36	Z36	X37	Y37	Z37	X38	Y38	Z38	X39	Y39	Z39	X40	Y40	Z40	X41	Y41	Z41	X42	Y42	Z42	X43	Y43	Z43	X44	Y44	Z44	X45	Y45	Z45	X46	Y46	Z46	X47	Y47	Z47	X48	Y48	Z48	X49	Y49	Z49	X50	Y50	Z50	X51	Y51	Z51	X52	Y52	Z52	X53	Y53	Z53	

142	1.41	-1441.660888671875	968.0638427734375	-187.3163452148438	-1358.021728515625	966.8673706054688	-301.8286743164062	-1396.371704101562	1058.788818359375	-223.7007141113281	-1168.7255859375	1247.499389648438	-77.44728088378906	-1409.18505859375	1184.002807617188	-234.6876678466797	-1357.67333984375	1450.986572265625	-179.5122680664062	-1195.505004882812	1361.153198242188	-97.08792877197266	-1463.301635742188	1331.512084960938	-136.0230102539062	-1331.180053710938	1405.671508789062	-283.7740478515625	-1201.49462890625	1423.786254882812	-294.2391662597656	-1154.530883789062	1307.122924804688	-383.4192199707031	-1120.966674804688	1089.703369140625	-402.5193786621094	-1224.289794921875	1077.681640625	-399.8503112792969	-1090.152709960938	885.0748901367188	-318.9844665527344	-1089.3857421875	872.533447265625	-392.3493347167969	-1099.318481445312	1001.581604003906	-397.88232421875	-1085.493530273438	722.2884521484375	-328.5635986328125	-1081.349853515625	794.999755859375	-389.5170593261719	-1383.29248046875	1413.375732421875	-7.541314125061035	-1436.362060546875	1350.204467773438	47.75460815429688	-1450.549194335938	1058.75537109375	88.79872131347656	-1476.453125	1043.229614257812	27.87687301635742	-1330.002807617188	857.9339599609375	88.41471099853516	-1414.392700195312	839.3046264648438	108.4971160888672	-1449.194702148438	999.9678344726562	96.99644470214844	-1324.962646484375	701.1820678710938	92.63357543945312	-1317.435424804688	760.4635620117188	102.468994140625	-1394.388305664062	752.2593383789062	109.9745330810547	-1317.414306640625	1646.934448242188	-52.05954742431641	-1132.289306640625	1658.350463867188	-144.7797241210938	-1182.99365234375	1660.02978515625	-24.14988708496094	-1263.876953125	1648.878173828125	-222.2254333496094	-1181.775146484375	862.7318725585938	-324.4181518554688	-1432.200317382812	856.1062622070312	-11.70308113098145	-1307.186889648438	894.2163696289062	2.528055429458618	-1148.22705078125	894.1544189453125	-200.9886016845703	-1188.548217773438	442.9074096679688	-317.8651428222656	-1157.099609375	596.8336181640625	-312.1386413574219	-1281.591552734375	41.60428237915039	-405.5835266113281	-1201.7802734375	296.6348571777344	-353.7385864257812	-1127.741455078125	51.67881393432617	-219.1979827880859	-1207.783935546875	52.75284957885742	-236.6497955322266	-1145.884765625	47.75212860107422	-330.4009094238281	-1353.818115234375	46.96013259887695	-374.7764282226562	-1407.119506835938	462.9709167480469	-47.70610046386719	-1401.55322265625	719.6767578125	11.70854473114014	-1467.555297851562	39.28028869628906	-108.757698059082	-1416.997680664062	320.6348266601562	-51.04755401611328	-1257.922119140625	48.08515548706055	-32.9703483581543	-1293.431762695312	55.22929763793945	-95.78843688964844	-1368.716064453125	47.47614288330078	-16.02996253967285	-1496.310791015625	32.92477035522461	-182.0870819091797	-1071.54931640625	799.1585693359375	-317.5777587890625	
143	1.42	-1441.47607421875	967.8363647460938	-185.6584930419922	-1357.86328125	966.69482421875	-300.1818237304688	-1396.215087890625	1058.720581054688	-221.6788635253906	-1168.624145507812	1247.144897460938	-74.87608337402344	-1409.011840820312	1183.93310546875	-232.5366058349609	-1357.266845703125	1450.785522460938	-176.9055786132812	-1195.279907226562	1360.822998046875	-94.45857238769531	-1463.00537109375	1331.405517578125	-133.6511383056641	-1330.740356445312	1405.613891601562	-281.2249755859375	-1201.103515625	1423.604248046875	-291.5232238769531	-1154.1943359375	1307.190795898438	-380.8753356933594	-1120.715698242188	1089.891235351562	-400.76025390625	-1224.131469726562	1077.875244140625	-398.0402526855469	-1089.81787109375	885.03369140625	-317.9041748046875	-1089.155517578125	872.7258911132812	-391.3173217773438	-1099.067749023438	1001.739379882812	-396.4271850585938	-1085.224609375	722.26318359375	-327.9990844726562	-1081.073120117188	795.128662109375	-388.7290344238281	-1383.093627929688	1413.09130859375	-4.993655204772949	-1436.285888671875	1349.912475585938	50.15952301025391	-1450.75927734375	1058.388305664062	90.73326110839844	-1476.598999023438	1042.983642578125	29.73538970947266	-1330.278076171875	857.517333984375	90.07382202148438	-1414.677001953125	838.8665771484375	110.054069519043	-1449.429931640625	999.593017578125	98.82622528076172	-1325.294677734375	700.7572021484375	94.02581024169922	-1317.753662109375	760.0193481445312	103.9681854248047	-1394.704345703125	751.8232421875	111.4160385131836	-1316.514770507812	1646.635375976562	-49.16117095947266	-1131.516357421875	1657.7275390625	-142.1103973388672	-1182.057250976562	1659.407470703125	-21.42278289794922	-1263.192138671875	1648.660522460938	-219.4341583251953	-1181.375244140625	862.3637084960938	-322.3287963867188	-1432.180908203125	855.7798461914062	-10.13523864746094	-1307.390625	893.888671875	4.324809551239014	-1148.282348632812	894.1876220703125	-198.8725433349609	-1184.207153320312	442.1151733398438	-313.7556457519531	-1154.018676757812	596.5515747070312	-308.5542907714844	-1281.623046875	41.88484954833984	-405.2591857910156	-1199.240356445312	295.6814270019531	-351.2029724121094	-1127.814697265625	51.07494735717773	-218.8715667724609	-1207.853271484375	52.35792922973633	-236.3798065185547	-1145.87060546875	47.76002883911133	-330.1996765136719	-1353.866821289062	47.07354354858398	-374.429931640625	-1407.178466796875	462.692626953125	-46.66195297241211	-1401.462158203125	719.3143920898438	13.20761489868164	-1467.669677734375	39.14303588867188	-108.730224609375	-1416.988525390625	320.2603759765625	-50.29928970336914	-1257.96875	48.13294982910156	-33.16971588134766	-1293.456665039062	55.20657348632812	-95.88532257080078	-1368.705078125	47.48775863647461	-16.10180473327637	-1496.52197265625	32.76800918579102	-181.9669342041016	-1071.263549804688	799.0119018554688	-316.7807006835938	
144	1.43	-1441.285034179688	967.5636596679688	-184.0122375488281	-1357.743408203125	966.379150390625	-298.5809936523438	-1396.042358398438	1058.588989257812	-219.6163330078125	-1168.50537109375	1246.723022460938	-72.26868438720703	-1408.827880859375	1183.795776367188	-230.3242797851562	-1356.85400390625	1450.500732421875	-174.2219696044922	-1195.037841796875	1360.42724609375	-91.77610778808594	-1462.675537109375	1331.212280273438	-131.1835174560547	-1330.333862304688	1405.483642578125	-278.6161193847656	-1200.735229492188	1423.3759765625	-288.75	-1153.8701171875	1307.213256835938	-378.27099609375	-1120.444702148438	1090.056030273438	-398.9520874023438	-1223.939331054688	1078.014526367188	-396.1654663085938	-1089.424682617188	884.9650268554688	-316.7945861816406	-1088.842041015625	872.8856811523438	-390.2532348632812	-1098.77490234375	1001.8701171875	-394.9305114746094	-1084.886474609375	722.1959838867188	-327.4233093261719	-1080.716796875	795.2454833984375	-387.9241943359375	-1382.8623046875	1412.741577148438	-2.373077154159546	-1436.18603515625	1349.56591796875	52.64204025268555	-1450.979125976562	1057.965942382812	92.7413330078125	-1476.751831054688	1042.686279296875	31.67204475402832	-1330.543090820312	857.0533447265625	91.80636596679688	-1414.967163085938	838.3782348632812	111.7001113891602	-1449.668823242188	999.1626586914062	100.7291030883789	-1325.61962890625	700.2825927734375	95.48540496826172	-1318.063720703125	759.5235595703125	105.5342483520508	-1395.019775390625	751.3341064453125	112.9325180053711	-1315.582275390625	1646.283081054688	-46.20762634277344	-1130.735717773438	1657.013916015625	-139.4442291259766	-1181.07763671875	1658.72607421875	-18.67717742919922	-1262.540405273438	1648.381469726562	-216.5923461914062	-1180.982788085938	861.8148193359375	-320.2355651855469	-1432.112915039062	855.456298828125	-8.536165237426758	-1307.53955078125	893.5275268554688	6.115723133087158	-1148.36279296875	894.1356811523438	-196.8103942871094	-1179.215209960938	441.2077026367188	-309.2393188476562	-1150.487670898438	596.1633911132812	-304.5841369628906	-1281.677124023438	42.3234748840332	-404.8395690917969	-1196.3125	294.6920166015625	-348.4744567871094	-1127.767211914062	50.34916687011719	-218.5160064697266	-1207.830932617188	51.97741317749023	-236.0754241943359	-1145.811645507812	47.73615264892578	-329.986328125	-1353.902587890625	47.38248062133789	-373.9323425292969	-1407.2744140625	462.402099609375	-45.61237335205078	-1401.322387695312	718.94189453125	14.71493053436279	-1467.794799804688	39.00752258300781	-108.7043914794922	-1416.993774414062	319.8574829101562	-49.56958389282227	-1258.01708984375	48.18462371826172	-33.39073181152344	-1293.473510742188	55.17111968994141	-96.00653076171875	-1368.68505859375	47.51232528686523	-16.19763374328613	-1496.723999023438	32.57778930664062	-181.8903198242188	-1070.918212890625	798.8281860351562	-315.9627990722656	
145	1.44	-1441.094604492188	967.236083984375	-182.3895263671875	-1357.669555664062	965.8743896484375	-297.0457153320312	-1395.846557617188	1058.38037109375	-217.5237884521484	-1168.3515625	1246.212036132812	-69.64031982421875	-1408.623168945312	1183.5830078125	-228.0492248535156	-1356.421997070312	1450.125366210938	-171.4658660888672	-1194.761596679688	1359.94970703125	-89.04872131347656	-1462.298583984375	1330.919921875	-128.6235198974609	-1329.95703125	1405.270751953125	-275.9487609863281	-1200.376831054688	1423.091674804688	-285.9274291992188	-1153.553100585938	1307.17431640625	-375.6187438964844	-1120.16015625	1090.184326171875	-397.1107177734375	-1223.71337890625	1078.090087890625	-394.2308959960938	-1088.9677734375	884.8626708984375	-315.6569213867188	-1088.445068359375	872.9993286132812	-389.1559143066406	-1098.449340820312	1001.967224121094	-393.402587890625	-1084.443725585938	722.0928344726562	-326.8178405761719	-1080.28662109375	795.3338623046875	-387.0908813476562	-1382.580688476562	1412.312622070312	0.3164429366588593	-1436.046020507812	1349.149047851562	55.19721603393555	-1451.199584960938	1057.474731445312	94.82286834716797	-1476.905639648438	1042.32421875	33.68959045410156	-1330.80029296875	856.5238037109375	93.62106323242188	-1415.263305664062	837.828125	113.4416275024414	-1449.90673828125	998.6630859375	102.7049865722656	-1325.93701171875	699.7415771484375	97.01457977294922	-1318.368286132812	758.9600830078125	107.1740417480469	-1395.335815429688	750.77734375	114.5261077880859	-1314.615600585938	1645.873901367188	-43.20131683349609	-1129.9453125	1656.211791992188	-136.7913208007812	-1180.048461914062	1657.98095703125	-15.92219161987305	-1261.923950195312	1648.036743164062	-213.7039489746094	-1180.587280273438	861.0526733398438	-318.1608581542969	-1431.991577148438	855.1381225585938	-6.912429809570312	-1307.626831054688	893.132080078125	7.892467498779297	-1148.4677734375	893.971923828125	-194.8242492675781	-1173.583740234375	440.2242736816406	-304.3471984863281	-1146.494384765625	595.6825561523438	-300.2119445800781	-1281.744750976562	43.0124397277832	-404.3101196289062	-1193.0078125	293.7395935058594	-345.5811767578125	-1127.572631835938	49.53287124633789	-218.1604766845703	-1207.682739257812	51.64101409912109	-235.7403564453125	-1145.704711914062	47.67847061157227	-329.7680358886719	-1353.912353515625	48.00709915161133	-373.2455139160156	-1407.410888671875	462.1013488769531	-44.55736541748047	-1401.131713867188	718.5640258789062	16.22386932373047	-1467.927612304688	38.877685546875	-108.6798400878906	-1417.020141601562	319.4354248046875	-48.85049438476562	-1258.068725585938	48.24008941650391	-33.62615966796875	-1293.482421875	55.12432861328125	-96.15188598632812	-1368.660278320312	47.5498046875	-16.31310272216797	-1496.91259765625	32.35768508911133	-181.8616943359375	-1070.500732421875	798.6087646484375	-315.1182556152344	
